<?xml version="1.0" encoding="UTF-8"?>
<svg width="677px" height="119px" viewBox="0 0 677 119" version="1.1" xmlns="http://www.w3.org/2000/svg" xmlns:xlink="http://www.w3.org/1999/xlink">
    <!-- Generator: Sketch 53 (72520) - https://sketchapp.com -->
    <title>Group 5 Copy</title>
    <desc>Created with Sketch.</desc>
    <defs>
        <path d="M36.4173516,1.42108547e-14 C46.1979546,14.5392226 47.5106745,33.9294564 38.1762287,50.0885615 C30.8146589,62.8323688 18.4006955,70.8491225 4.9038775,73.0818951 L-4.79616347e-13,43.8816004 C5.06130675,43.0443107 9.71654301,40.038028 12.4771317,35.2591003 C15.9775489,29.1994359 15.4852789,21.9280982 11.8175528,16.4758897 L36.4173516,1.42108547e-14 Z" id="path-1"></path>
        <path d="M0.455291704,0.682585565 C22.3157439,-0.812562387 44.1379472,9.8860312 55.8060045,30.0849125 C59.8626799,37.1075301 62.3106095,44.6183589 63.2642756,52.1928266 L22.0647501,57.4785324 C21.7786503,55.2061921 21.0442714,52.9529435 19.8272688,50.8461582 C16.3268516,44.7864938 9.78019058,41.5769157 3.22205492,42.0254601 L0.455291704,0.682585565 Z" id="path-3"></path>
    </defs>
    <g id="Page-1" stroke="none" stroke-width="1" fill="none" fill-rule="evenodd">
        <g id="Artboard" transform="translate(-604.000000, -446.000000)">
            <g id="Group-5-Copy" transform="translate(604.000000, 446.000000)">
                <path d="M179.288972,83.2941176 L175.757675,68.1680672 L156.991356,68.1680672 L153.359165,83.2941176 L141.251863,83.2941176 L159.00924,11.8991597 L174.446051,11.8991597 L191.900745,83.2941176 L179.288972,83.2941176 Z M166.677198,23.2941176 L166.273621,23.2941176 L158.504769,58.6890756 L174.244262,58.6890756 L166.677198,23.2941176 Z M198.963338,83.2941176 L198.963338,7.05882353 L210.465276,7.05882353 L210.465276,83.2941176 L198.963338,83.2941176 Z M252.437258,80.2689076 C251.024732,81.7479066 249.309548,82.9075588 247.291654,83.7478992 C245.27376,84.5882395 242.986848,85.0084034 240.430849,85.0084034 C237.269482,85.0084034 234.478105,84.3361412 232.056632,82.9915966 C229.635159,81.6470521 227.617296,79.7479114 226.002981,77.2941176 C224.388666,74.8403239 223.177947,71.9327899 222.37079,68.5714286 C221.563632,65.2100672 221.16006,61.5126252 221.16006,57.4789916 C221.16006,53.445358 221.580448,49.747916 222.421237,46.3865546 C223.262026,43.0251933 224.506375,40.1344659 226.154322,37.7142857 C227.802269,35.2941055 229.820132,33.428578 232.207973,32.1176471 C234.595814,30.8067161 237.370377,30.1512605 240.531744,30.1512605 C243.289532,30.1512605 245.660522,30.621844 247.644784,31.5630252 C249.629046,32.5042064 251.19289,33.5462128 252.336364,34.6890756 L247.19076,43.2605042 C246.450866,42.4537775 245.593274,41.7815153 244.617958,41.2436975 C243.642643,40.7058797 242.44874,40.4369748 241.036215,40.4369748 C238.211163,40.4369748 236.075591,41.9999844 234.629434,45.1260504 C233.183276,48.2521165 232.460209,52.3697224 232.460209,57.4789916 C232.460209,62.5882608 233.200092,66.6890602 234.679881,69.7815126 C236.15967,72.873965 238.412951,74.4201681 241.439791,74.4201681 C242.852317,74.4201681 244.063035,74.1512632 245.071982,73.6134454 C246.080929,73.0756276 246.955337,72.3361392 247.695231,71.394958 L252.437258,80.2689076 Z M296.124441,57.6806723 C296.124441,61.7143059 295.670422,65.4117479 294.76237,68.7731092 C293.854317,72.1344706 292.542706,75.0083914 290.827496,77.394958 C289.112287,79.7815245 287.043976,81.6470521 284.622504,82.9915966 C282.201031,84.3361412 279.443284,85.0084034 276.34918,85.0084034 C273.255076,85.0084034 270.49733,84.3361412 268.075857,82.9915966 C265.654384,81.6470521 263.586074,79.7815245 261.870864,77.394958 C260.155655,75.0083914 258.844043,72.1344706 257.935991,68.7731092 C257.027939,65.4117479 256.57392,61.7143059 256.57392,57.6806723 C256.57392,53.5798114 257.027939,49.8319497 257.935991,46.4369748 C258.844043,43.0419998 260.138839,40.1344659 261.820417,37.7142857 C263.501995,35.2941055 265.570306,33.428578 268.02541,32.1176471 C270.480514,30.8067161 273.255076,30.1512605 276.34918,30.1512605 C279.443284,30.1512605 282.201031,30.8067161 284.622504,32.1176471 C287.043976,33.428578 289.112287,35.2941055 290.827496,37.7142857 C292.542706,40.1344659 293.854317,43.0419998 294.76237,46.4369748 C295.670422,49.8319497 296.124441,53.5798114 296.124441,57.6806723 Z M284.824292,57.5798319 C284.824292,55.0924245 284.656137,52.7899266 284.319821,50.6722689 C283.983506,48.5546113 283.462224,46.7058903 282.755961,45.1260504 C282.049698,43.5462106 281.175291,42.3025255 280.132712,41.394958 C279.090134,40.4873904 277.828969,40.0336134 276.34918,40.0336134 C274.869392,40.0336134 273.608227,40.4873904 272.565648,41.394958 C271.52307,42.3025255 270.665478,43.5462106 269.992846,45.1260504 C269.320215,46.7058903 268.815749,48.5546113 268.479434,50.6722689 C268.143118,52.7899266 267.974963,55.0924245 267.974963,57.5798319 C267.974963,60.0000121 268.143118,62.2857035 268.479434,64.4369748 C268.815749,66.5882461 269.320215,68.4369671 269.992846,69.9831933 C270.665478,71.5294195 271.52307,72.756298 272.565648,73.6638655 C273.608227,74.5714331 274.869392,75.0252101 276.34918,75.0252101 C277.828969,75.0252101 279.106949,74.5714331 280.183159,73.6638655 C281.25937,72.756298 282.133777,71.5294195 282.806408,69.9831933 C283.47904,68.4369671 283.983506,66.5882461 284.319821,64.4369748 C284.656137,62.2857035 284.824292,60.0000121 284.824292,57.5798319 Z M319.128316,16.9411765 C319.128316,18.9579933 318.489326,20.6386487 317.211326,21.9831933 C315.933327,23.3277378 314.352667,24 312.4693,24 C310.518669,24 308.921194,23.3277378 307.676826,21.9831933 C306.432458,20.6386487 305.810283,18.9579933 305.810283,16.9411765 C305.810283,14.9915869 306.432458,13.3109314 307.676826,11.8991597 C308.921194,10.4873879 310.518669,9.78151261 312.4693,9.78151261 C314.41993,9.78151261 316.017406,10.4873879 317.261773,11.8991597 C318.506141,13.3109314 319.128316,14.9915869 319.128316,16.9411765 Z M306.819225,83.2941176 L306.819225,31.8655462 L318.119374,31.8655462 L318.119374,83.2941176 L306.819225,83.2941176 Z M343.242027,31.8655462 L343.242027,40.0336134 L343.443815,40.0336134 C344.385499,37.2772971 345.949343,34.9411861 348.135395,33.0252101 C350.321447,31.1092341 353.028747,30.1512605 356.257377,30.1512605 C359.082428,30.1512605 361.352525,30.7394899 363.067735,31.9159664 C364.782944,33.0924429 366.111371,34.6554524 367.053055,36.605042 C367.994739,38.5546316 368.633729,40.7899034 368.970045,43.3109244 C369.30636,45.8319454 369.474516,48.4033482 369.474516,51.0252101 L369.474516,83.2941176 L358.073472,83.2941176 L358.073472,51.0252101 C358.073472,49.7478928 358.00621,48.4537881 357.871684,47.1428571 C357.737158,45.8319262 357.451294,44.6386608 357.014083,43.5630252 C356.576873,42.4873896 355.937883,41.6302553 355.097094,40.9915966 C354.256305,40.352938 353.163295,40.0336134 351.818033,40.0336134 C349.262034,40.0336134 347.227355,41.3109116 345.713934,43.8655462 C344.200514,46.4201808 343.443815,49.6470393 343.443815,53.5462185 L343.443815,83.2941176 L332.042772,83.2941176 L332.042772,31.8655462 L343.242027,31.8655462 Z M433.340537,83.2941176 L429.002086,65.4453782 L407.007154,65.4453782 L402.466915,83.2941176 L395.303428,83.2941176 L413.464382,11.8991597 L423.049329,11.8991597 L440.705812,83.2941176 L433.340537,83.2941176 Z M418.307303,18.2521008 L417.903726,18.2521008 L408.016095,59.7983193 L427.993145,59.7983193 L418.307303,18.2521008 Z M474.808048,83.2941176 L474.808048,51.0252101 C474.808048,49.4789839 474.72397,47.9159743 474.555812,46.3361345 C474.387654,44.7562946 474.017713,43.3109309 473.445976,42 C472.87424,40.6890691 472.067094,39.6134496 471.024516,38.7731092 C469.981937,37.9327689 468.619879,37.512605 466.938301,37.512605 C465.256723,37.512605 463.760141,37.966382 462.44851,38.8739496 C461.136879,39.7815171 460.027054,41.0252022 459.119001,42.605042 C458.210949,44.1848818 457.504697,45.9999897 457.000224,48.0504202 C456.49575,50.1008506 456.243517,52.235283 456.243517,54.4537815 L456.243517,83.2941176 L449.584501,83.2941176 L449.584501,45.8823529 C449.584501,44.8067173 449.567685,43.647065 449.534054,42.4033613 C449.500422,41.1596576 449.466791,39.9495857 449.433159,38.7731092 C449.399528,37.5966328 449.365897,36.5210133 449.332265,35.5462185 C449.298634,34.5714237 449.248187,33.8151287 449.180924,33.2773109 L455.638152,33.2773109 C455.772678,34.5546282 455.873571,36.1008313 455.940835,37.9159664 C456.008098,39.7311015 456.041729,41.4453701 456.041729,43.0588235 L456.243517,43.0588235 C457.185201,39.6974622 458.73223,36.9579938 460.88465,34.8403361 C463.03707,32.7226785 465.727555,31.6638655 468.956185,31.6638655 C471.64671,31.6638655 473.815913,32.2352884 475.46386,33.3781513 C477.111807,34.5210141 478.372971,36.0167975 479.247392,37.8655462 C480.121813,39.714295 480.710356,41.7983077 481.01304,44.1176471 C481.315724,46.4369864 481.467064,48.7394844 481.467064,51.0252101 L481.467064,83.2941176 L474.808048,83.2941176 Z M517.587183,83.2941176 C517.51992,82.7562998 517.469474,82.0840376 517.435842,81.2773109 C517.40221,80.4705842 517.368579,79.6134499 517.334948,78.7058824 C517.301316,77.7983148 517.284501,76.9243739 517.284501,76.0840336 L517.284501,73.9159664 L517.082712,73.9159664 C515.401134,81.0420524 511.365407,84.605042 504.97541,84.605042 C503.562884,84.605042 502.15038,84.3361371 500.737854,83.7983193 C499.325328,83.2605015 498.047348,82.3865607 496.903875,81.1764706 C495.760402,79.9663805 494.818732,78.436984 494.078838,76.5882353 C493.338943,74.7394866 492.969001,72.5042148 492.969001,69.8823529 C492.969001,66.2520827 493.607992,63.3277422 494.885991,61.1092437 C496.16399,58.8907452 497.778281,57.1428635 499.728912,55.8655462 C501.679543,54.5882289 503.815115,53.7310946 506.135693,53.2941176 C508.456271,52.8571407 510.659105,52.6386555 512.744262,52.6386555 L516.679136,52.6386555 L516.679136,50.0168067 C516.679136,45.647037 515.87199,42.4537916 514.257675,40.4369748 C512.64336,38.420158 510.457341,37.4117647 507.699553,37.4117647 C505.816185,37.4117647 504.06737,37.9159613 502.453055,38.9243697 C500.83874,39.9327782 499.459867,41.2100763 498.316393,42.7563025 L494.785097,38.6218487 C496.332149,36.4033503 498.350012,34.6890817 500.838748,33.4789916 C503.327484,32.2689015 505.816182,31.6638655 508.304918,31.6638655 C513.551442,31.6638655 517.28449,33.3781341 519.504173,36.8067227 C521.723856,40.2353113 522.833681,45.2436645 522.833681,51.8319328 L522.833681,72.605042 C522.833681,73.2773143 522.850497,74.117642 522.884128,75.1260504 C522.91776,76.1344588 522.951391,77.1596587 522.985022,78.2016807 C523.018654,79.2437027 523.069101,80.2184829 523.136364,81.1260504 C523.203627,82.033618 523.270889,82.7562998 523.338152,83.2941176 L517.587183,83.2941176 Z M516.78003,57.8823529 L512.744262,57.8823529 C511.129947,57.8823529 509.515656,58.0336119 507.901341,58.3361345 C506.287026,58.638657 504.857706,59.2100798 503.613338,60.0504202 C502.36897,60.8907605 501.343223,62.0504128 500.536066,63.5294118 C499.728908,65.0084108 499.325335,66.924358 499.325335,69.2773109 C499.325335,72.7731267 500.09885,75.2941099 501.645902,76.8403361 C503.192954,78.3865624 504.874507,79.1596639 506.690611,79.1596639 C508.573979,79.1596639 510.171454,78.588241 511.483085,77.4453782 C512.794716,76.3025153 513.837279,74.8571516 514.610805,73.1092437 C515.384331,71.3613358 515.939243,69.4453886 516.275559,67.3613445 C516.611875,65.2773005 516.78003,63.2605139 516.78003,61.3109244 L516.78003,57.8823529 Z M537.362444,83.2941176 L537.362444,7.05882353 L544.021461,7.05882353 L544.021461,83.2941176 L537.362444,83.2941176 Z M572.170939,93.8823529 C571.632834,96.0336242 571.010659,97.9495714 570.304396,99.6302521 C569.598134,101.310933 568.740542,102.722683 567.731595,103.865546 C566.722648,105.008409 565.562376,105.899156 564.250745,106.537815 C562.939114,107.176474 561.37527,107.495798 559.559165,107.495798 C558.617482,107.495798 557.675812,107.411766 556.734128,107.243697 C555.792444,107.075629 555.01893,106.890757 554.413562,106.689076 L555.32161,100.739496 C555.792451,100.87395 556.364179,101.008403 557.036811,101.142857 C557.709442,101.277312 558.382063,101.344538 559.054694,101.344538 C561.005325,101.344538 562.468276,100.672276 563.443592,99.3277311 C564.418907,97.9831866 565.209237,96.1344655 565.814605,93.7815126 L568.034277,85.1092437 L553.505514,33.2773109 L560.568107,33.2773109 L571.363785,75.5294118 L571.565574,75.5294118 L581.150522,33.2773109 L587.910432,33.2773109 L572.170939,93.8823529 Z M616.463487,41.9495798 C615.589067,40.4705808 614.462426,39.2773155 613.083532,38.3697479 C611.704638,37.4621803 610.0399,37.0084034 608.08927,37.0084034 C605.93685,37.0084034 604.171219,37.7983114 602.792325,39.3781513 C601.413431,40.9579911 600.723994,43.0251973 600.723994,45.5798319 C600.723994,48.268921 601.396615,50.2184813 602.741878,51.4285714 C604.08714,52.6386615 606.105004,53.7478941 608.795529,54.7563025 C610.140792,55.2941203 611.486034,55.949576 612.831297,56.7226891 C614.176559,57.4958022 615.370462,58.4537758 616.41304,59.5966387 C617.455619,60.7395015 618.313211,62.1008324 618.985842,63.6806723 C619.658473,65.2605121 619.994784,67.1596528 619.994784,69.3781513 C619.994784,74.2857388 618.666357,78.1008267 616.009463,80.8235294 C613.35257,83.5462321 609.905386,84.907563 605.667809,84.907563 C602.842758,84.907563 600.253166,84.2521074 597.898957,82.9411765 C595.544747,81.6302455 593.594146,79.8655573 592.047094,77.6470588 L596.082861,73.3109244 C597.226335,75.0588323 598.588392,76.4873894 600.169076,77.5966387 C601.74976,78.7058879 603.616283,79.2605042 605.768703,79.2605042 C608.122913,79.2605042 610.023068,78.4033699 611.469225,76.6890756 C612.915382,74.9747813 613.63845,72.7058965 613.63845,69.8823529 C613.63845,68.2688995 613.369402,66.9075686 612.831297,65.7983193 C612.293192,64.6890701 611.586939,63.7647096 610.712519,63.0252101 C609.838098,62.2857106 608.845982,61.6470615 607.73614,61.1092437 C606.626298,60.5714259 605.466027,60.0672292 604.255291,59.5966387 C602.977291,59.1260481 601.749757,58.5546252 600.572653,57.8823529 C599.395548,57.2100807 598.33617,56.3361398 597.394486,55.2605042 C596.452802,54.1848686 595.696103,52.8907639 595.124367,51.3781513 C594.55263,49.8655387 594.266766,48.0336242 594.266766,45.8823529 C594.266766,43.7983089 594.619892,41.8823617 595.326155,40.1344538 C596.032418,38.3865459 597.024534,36.8907625 598.302534,35.6470588 C599.580533,34.4033551 601.043484,33.428575 602.691431,32.7226891 C604.339377,32.0168032 606.138639,31.6638655 608.08927,31.6638655 C610.914321,31.6638655 613.352573,32.2184818 615.404098,33.3277311 C617.455624,34.4369803 619.120361,35.8655375 620.398361,37.6134454 L616.463487,41.9495798 Z M639.467362,17.9495798 C639.467362,19.3613516 639.030158,20.5210039 638.155738,21.4285714 C637.281317,22.336139 636.238754,22.789916 635.028018,22.789916 C633.750018,22.789916 632.69064,22.336139 631.849851,21.4285714 C631.009062,20.5210039 630.588674,19.3613516 630.588674,17.9495798 C630.588674,16.6050353 631.009062,15.4621896 631.849851,14.5210084 C632.69064,13.5798272 633.750018,13.1092437 635.028018,13.1092437 C636.306017,13.1092437 637.365396,13.5798272 638.206185,14.5210084 C639.046974,15.4621896 639.467362,16.6050353 639.467362,17.9495798 Z M631.69851,83.2941176 L631.69851,33.2773109 L638.357526,33.2773109 L638.357526,83.2941176 L631.69851,83.2941176 Z M672.964232,41.9495798 C672.089812,40.4705808 670.963171,39.2773155 669.584277,38.3697479 C668.205383,37.4621803 666.540646,37.0084034 664.590015,37.0084034 C662.437595,37.0084034 660.671964,37.7983114 659.29307,39.3781513 C657.914176,40.9579911 657.224739,43.0251973 657.224739,45.5798319 C657.224739,48.268921 657.89736,50.2184813 659.242623,51.4285714 C660.587886,52.6386615 662.605749,53.7478941 665.296274,54.7563025 C666.641537,55.2941203 667.986779,55.949576 669.332042,56.7226891 C670.677304,57.4958022 671.871207,58.4537758 672.913785,59.5966387 C673.956364,60.7395015 674.813956,62.1008324 675.486587,63.6806723 C676.159218,65.2605121 676.495529,67.1596528 676.495529,69.3781513 C676.495529,74.2857388 675.167102,78.1008267 672.510209,80.8235294 C669.853315,83.5462321 666.406131,84.907563 662.168554,84.907563 C659.343503,84.907563 656.753911,84.2521074 654.399702,82.9411765 C652.045492,81.6302455 650.094891,79.8655573 648.547839,77.6470588 L652.583607,73.3109244 C653.72708,75.0588323 655.089138,76.4873894 656.669821,77.5966387 C658.250505,78.7058879 660.117028,79.2605042 662.269449,79.2605042 C664.623658,79.2605042 666.523813,78.4033699 667.96997,76.6890756 C669.416127,74.9747813 670.139195,72.7058965 670.139195,69.8823529 C670.139195,68.2688995 669.870147,66.9075686 669.332042,65.7983193 C668.793937,64.6890701 668.087684,63.7647096 667.213264,63.0252101 C666.338843,62.2857106 665.346727,61.6470615 664.236885,61.1092437 C663.127044,60.5714259 661.966772,60.0672292 660.756036,59.5966387 C659.478036,59.1260481 658.250503,58.5546252 657.073398,57.8823529 C655.896293,57.2100807 654.836915,56.3361398 653.895231,55.2605042 C652.953547,54.1848686 652.196848,52.8907639 651.625112,51.3781513 C651.053375,49.8655387 650.767511,48.0336242 650.767511,45.8823529 C650.767511,43.7983089 651.120637,41.8823617 651.8269,40.1344538 C652.533163,38.3865459 653.525279,36.8907625 654.803279,35.6470588 C656.081278,34.4033551 657.544229,33.428575 659.192176,32.7226891 C660.840122,32.0168032 662.639384,31.6638655 664.590015,31.6638655 C667.415066,31.6638655 669.853318,32.2184818 671.904844,33.3277311 C673.956369,34.4369803 675.621106,35.8655375 676.899106,37.6134454 L672.964232,41.9495798 Z" id="AlcoinAnalysis" fill="#4E5D78" fill-rule="nonzero"></path>
                <g id="Group-3">
                    <g id="Path-5" transform="translate(55.972837, 45.068871)">
                        <g transform="translate(0.547338, 0.062461)">
                            <mask id="mask-2" fill="white">
                                <use xlink:href="#path-1"></use>
                            </mask>
                            <use id="Mask" fill="#0284FE" xlink:href="#path-1"></use>
                            <path d="M11.3295653,26.3688882 L52.7543905,32.8938511 L50.3872577,9.1667132 C38.9905177,6.10498463 32.3933723,4.57412034 30.5958215,4.57412034 C28.7982708,4.57412034 19.4172693,9.29407547 2.45281709,18.7339857 L6.59529961,25.1825313 L11.3295653,26.3688882 Z" fill-opacity="0.100961538" fill="#000000" mask="url(#mask-2)"></path>
                        </g>
                    </g>
                    <g id="Path-4" transform="translate(48.653647, 10.791248)">
                        <g transform="translate(0.501564, 0.927243)">
                            <mask id="mask-4" fill="white">
                                <use xlink:href="#path-3"></use>
                            </mask>
                            <use id="Mask" fill="#10C88D" xlink:href="#path-3"></use>
                            <polygon fill-opacity="0.100961538" fill="#000000" mask="url(#mask-4)" points="12.7766967 48.511339 45.3247736 4.02295539 3.3081652 -5.04201681 -2.01788376 18.8524166 4.49173163 44.7520969"></polygon>
                        </g>
                    </g>
                    <path d="M0.121712753,24.7155508 C17.4015689,4.90756743 45.0012281,-4.52124521 72.0503751,2.72268342 C74.0457478,3.25705656 75.998326,3.87150073 77.9055946,4.5616473 L59.689472,54.7493988 C59.2126548,54.5768622 58.7245103,54.4232511 58.2256671,54.2896578 C51.4633803,52.4786757 44.5634655,54.8358788 40.2435015,59.7878747 L0.121712753,24.7155508 L0.121712753,24.7155508 Z" id="Path" fill="#FFF425"></path>
                </g>
            </g>
        </g>
    </g>
</svg>