<?xml version="1.0" encoding="UTF-8"?>
<svg width="16px" height="16px" viewBox="0 0 16 16" version="1.1" xmlns="http://www.w3.org/2000/svg" xmlns:xlink="http://www.w3.org/1999/xlink">
    <!-- Generator: Sketch 53 (72520) - https://sketchapp.com -->
    <title>icon/bell</title>
    <desc>Created with Sketch.</desc>
    <g id="icon/bell" stroke="none" stroke-width="1" fill="none" fill-rule="evenodd">
        <path d="M12.2,9.4 L12.2,5.90000001 C12.2,3.58040409 10.3195959,1.70000007 8,1.70000007 C5.68040408,1.70000007 3.80000003,3.58040409 3.8,5.9 L3.8,9.4 C3.8,9.910002 3.663648,10.3881573 3.42540985,10.8 L12.5745901,10.8 C12.336352,10.3881573 12.2,9.910002 12.2,9.4 Z M15,12.2 L1,12.2 C0.0666666667,12.2 0.0666666667,10.8 1,10.8 C1.77319865,10.8 2.4,10.1731986 2.4,9.4 L2.4,5.89999999 C2.40000005,2.80720542 4.90720543,0.300000073 8,0.300000073 C11.0927946,0.300000073 13.6,2.80720542 13.6,5.9 L13.6,9.4 C13.6,10.1731986 14.2268014,10.8 15,10.8 C15.9333333,10.8 15.9333333,12.2 15,12.2 Z M9.8165,14.6512403 C9.44081235,15.2988849 8.74872204,15.6975194 8,15.6975194 C7.25127796,15.6975194 6.55918765,15.2988849 6.1835,14.6512403 C5.91279542,14.1845751 6.24950266,13.6 6.789,13.6 L9.211,13.6 C9.75049734,13.6 10.0872046,14.1845751 9.8165,14.6512403 Z" id="Shape" fill="#8A94A6" fill-rule="nonzero"></path>
    </g>
</svg>