<?xml version="1.0" encoding="UTF-8"?>
<svg width="24px" height="24px" viewBox="0 0 24 24" version="1.1" xmlns="http://www.w3.org/2000/svg" xmlns:xlink="http://www.w3.org/1999/xlink">
    <!-- Generator: Sketch 53.2 (72643) - https://sketchapp.com -->
    <title>btc</title>
    <desc>Created with Sketch.</desc>
    <g id="Page-1" stroke="none" stroke-width="1" fill="none" fill-rule="evenodd">
        <g id="投资组合/投资详情" transform="translate(-296.000000, -371.000000)" fill-rule="nonzero">
            <g id="Group-36" transform="translate(296.000000, 356.000000)">
                <g id="Group-25" transform="translate(0.000000, 15.000000)">
                    <g id="btc">
                        <path d="M23.8980657,12.0592716 C23.8980657,18.6537791 18.5522746,23.9995701 11.9577672,23.9995701 C5.3632597,23.9995701 0.0174686567,18.6537791 0.0174686567,12.0592716 C0.0174686567,5.46476418 5.3632597,0.118973134 11.9577672,0.118973134 C18.5522746,0.118973134 23.8980657,5.46476418 23.8980657,12.0592716" id="Fill-504" fill="#F7931A"></path>
                        <path d="M14.8568358,15.5488955 C14.7568955,15.8847761 14.5320597,16.1615522 14.2237612,16.3282388 C13.9154627,16.4951642 13.5608358,16.5319403 13.2249552,16.4318806 L9.86244776,15.4304478 L10.6115821,12.9154627 L13.9738507,13.9170149 L13.9739701,13.9170149 C14.6672239,14.1234627 15.063403,14.8555224 14.8568358,15.5488955 M15.9909254,10.3948657 C16.1576119,10.7031642 16.1943881,11.057791 16.0944478,11.393791 C15.8878806,12.0869254 15.1554627,12.4828657 14.4625672,12.2767761 L14.4624478,12.2767761 L11.1000597,11.2753433 L11.8489552,8.76035821 L15.2114627,9.76179104 C15.5473433,9.86185075 15.8241194,10.0865672 15.9909254,10.3948657 M17.4961194,9.58053731 C17.1117612,8.87020896 16.473791,8.352 15.6999403,8.12155224 L15.2550448,7.98913433 L15.8778507,5.89791045 L14.2798806,5.42197015 L13.6570746,7.51319403 L12.2927761,7.10686567 L12.9157015,5.01564179 L12.5328955,4.90161194 L10.9820896,4.43976119 L10.3817313,6.45552239 L8.4918209,5.89265672 L7.95844776,7.68370149 L9.84835821,8.24668657 L7.90674627,14.7658507 L6.01683582,14.2029851 L5.48346269,15.9941493 L7.37325373,16.5568955 L6.86662687,18.2582687 L7.24931343,18.3722985 L8.8001194,18.8341493 L9.32931343,17.0573134 L10.6968358,17.464597 L10.1676418,19.2415522 L11.7591642,19.7155821 L12.2883582,17.9386269 L12.7363582,18.072 C13.0219701,18.1570149 13.3136716,18.1991642 13.6035821,18.1991642 C14.0991045,18.1991642 14.5899701,18.0760597 15.0380896,17.8335522 C15.7484179,17.449194 16.2665075,16.8113433 16.4970746,16.0372537 C16.7394627,15.2230448 16.6198209,14.3866269 16.2342687,13.6981493 C16.934209,13.3328955 17.4919403,12.6968358 17.7345672,11.8822687 C17.9651343,11.1081791 17.8803582,10.2907463 17.4961194,9.58053731" id="Fill-505" fill="#FFFFFF"></path>
                    </g>
                </g>
            </g>
        </g>
    </g>
</svg>