<?xml version="1.0" encoding="UTF-8"?>
<svg width="120px" height="120px" viewBox="0 0 120 120" version="1.1" xmlns="http://www.w3.org/2000/svg" xmlns:xlink="http://www.w3.org/1999/xlink">
    <!-- Generator: Sketch 53 (72520) - https://sketchapp.com -->
    <title>img_bitcoin</title>
    <desc>Created with Sketch.</desc>
    <defs>
        <rect id="path-1" x="0" y="0" width="120" height="120" rx="2"></rect>
    </defs>
    <g id="Page-1" stroke="none" stroke-width="1" fill="none" fill-rule="evenodd">
        <g id="img_bitcoin">
            <mask id="mask-2" fill="white">
                <use xlink:href="#path-1"></use>
            </mask>
            <g id="Mask"></g>
            <g id="btc" mask="url(#mask-2)" fill-rule="nonzero">
                <g transform="translate(0.000000, -15.000000)">
                    <path d="M150,75 C150,116.42175 116.42175,150 75,150 C33.57825,150 0,116.42175 0,75 C0,33.57825 33.57825,0 75,0 C116.42175,0 150,33.57825 150,75" id="Fill-504" fill="#FFDA43"></path>
                    <path d="M92.5998966,97.4535911 C91.9816571,99.5754837 90.5908029,101.32399 88.6836412,102.377016 C86.7764794,103.43155 84.5827264,103.66388 82.5049394,103.031762 L61.7041721,96.705309 L66.338383,80.8171381 L87.1376731,87.1443459 L87.1384118,87.1443459 C91.4269404,88.4485593 93.8777393,93.0732745 92.5998966,97.4535911 M99.6154745,64.8935143 C100.646612,66.8411598 100.874113,69.0814801 100.255873,71.2041271 C98.9780304,75.5829351 94.4472287,78.084249 90.1609159,76.7822985 L90.1601773,76.7822985 L69.3601485,70.455845 L73.9928822,54.5676741 L94.7936496,60.8941276 C96.8714366,61.5262449 98.583598,62.9458688 99.6154745,64.8935143 M108.926737,59.7490749 C106.549064,55.2616454 102.602524,51.9879113 97.8154151,50.5320802 L95.0632523,49.6955431 L98.9159848,36.4844418 L89.0308007,33.4777358 L85.1780681,46.688837 L76.7383974,44.1218976 L80.5918686,30.9107963 L78.2237972,30.190424 L68.6303748,27.2727273 L64.916506,40.0071004 L53.2253535,36.4512519 L49.9258603,47.7660011 L61.6170128,51.322604 L49.6060303,92.5067827 L37.9148778,88.9509342 L34.6153846,100.266438 L46.3057985,103.821532 L43.1717601,114.569789 L45.5390929,115.290162 L55.1325152,118.207859 L58.4061561,106.982873 L66.8657701,109.555847 L63.5921292,120.781587 L73.4374269,123.776224 L76.7110678,112.550484 L79.4824353,113.393056 C81.2492559,113.930129 83.053747,114.196403 84.8471586,114.196403 C87.9125037,114.196403 90.949042,113.418702 93.7211481,111.886685 C98.1153019,109.45854 101.32025,105.428981 102.746558,100.538746 C104.245992,95.395061 103.505878,90.1110731 101.120817,85.7616835 C105.45071,83.454229 108.900885,79.4359843 110.401796,74.2900364 C111.828105,69.3998017 111.303672,64.2357502 108.926737,59.7490749" id="Fill-505" fill="#FFFFFF"></path>
                </g>
            </g>
        </g>
    </g>
</svg>