<?xml version="1.0" encoding="UTF-8"?>
<svg width="120px" height="120px" viewBox="0 0 120 120" version="1.1" xmlns="http://www.w3.org/2000/svg" xmlns:xlink="http://www.w3.org/1999/xlink">
    <!-- Generator: Sketch 53 (72520) - https://sketchapp.com -->
    <title>img_dollar120*120</title>
    <desc>Created with Sketch.</desc>
    <defs>
        <rect id="path-1" x="0" y="0" width="120" height="120" rx="2"></rect>
    </defs>
    <g id="Page-1" stroke="none" stroke-width="1" fill="none" fill-rule="evenodd">
        <g id="img_dollar120*120">
            <mask id="mask-2" fill="white">
                <use xlink:href="#path-1"></use>
            </mask>
            <g id="Mask"></g>
            <g id="Group-16" mask="url(#mask-2)">
                <g transform="translate(75.128457, 60.128457) rotate(-340.000000) translate(-75.128457, -60.128457) translate(-21.871543, -36.871543)">
                    <circle id="Oval" stroke="none" fill="#80DA9D" fill-rule="evenodd" transform="translate(97.000000, 97.000000) rotate(-20.000000) translate(-97.000000, -97.000000) " cx="97" cy="97" r="75"></circle>
                    <path d="M126,112.543478 C126,118.920322 123.868843,124.083314 119.606464,128.032609 C115.344085,131.981904 109.673039,134.282605 102.593156,134.934783 L102.593156,147 L93.7072243,147 L93.7072243,135.26087 C83.5208616,134.826085 75.2852025,131.420322 69,125.043478 L76.8022814,117.326087 C81.3536349,121.891327 87.3136514,124.355071 94.6825095,124.717391 L94.6825095,100.586957 L91.865019,100.26087 C85.7965476,99.5362283 80.9562918,97.4710315 77.3441065,94.0652174 C73.51519,90.4420109 71.6007605,85.5145239 71.6007605,79.2826087 C71.6007605,73.0506935 73.5693719,67.9058174 77.506654,63.8478261 C81.443936,59.7898348 86.8440721,57.4347859 93.7072243,56.7826087 L93.7072243,47 L102.593156,47 L102.593156,56.673913 C110.828939,57.181162 117.728109,60.0796837 123.290875,65.3695652 L115.813688,72.7608696 C112.129259,69.2825913 107.397367,67.3260891 101.617871,66.8913043 L101.617871,90.3695652 L105.302281,90.9130435 C111.731971,91.9275413 116.536106,93.847812 119.714829,96.673913 C123.904964,100.369584 126,105.659386 126,112.543478 Z M114.404943,112.869565 C114.404943,109.318823 113.393546,106.63769 111.370722,104.826087 C111.009504,104.53623 110.63023,104.246378 110.23289,103.956522 C109.835549,103.666665 109.474336,103.43116 109.14924,103.25 C108.824143,103.06884 108.408748,102.905798 107.903042,102.76087 C107.397336,102.615941 107.036123,102.489131 106.819392,102.380435 C106.602661,102.271739 106.169205,102.163044 105.519011,102.054348 C104.868818,101.945652 104.453423,101.873189 104.272814,101.836957 C104.092204,101.800724 103.640688,101.728261 102.918251,101.619565 C102.195814,101.510869 101.762358,101.456522 101.617871,101.456522 L101.617871,124.5 C105.663518,124.137679 108.806072,122.942039 111.045627,120.913043 C113.285182,118.884048 114.404943,116.202915 114.404943,112.869565 Z M94.6825095,89.6086957 L94.6825095,67 C90.9980804,67.3623207 88.1264362,68.6123082 86.0674905,70.75 C84.0085448,72.8876918 82.9790875,75.5869402 82.9790875,78.8478261 C82.9790875,81.8913196 83.9543629,84.2826 85.904943,86.0217391 C88.0000105,87.9058065 90.9258367,89.1014467 94.6825095,89.6086957 Z" id="$" stroke="#80DA9D" stroke-width="1" fill="#FFFFFF" fill-rule="nonzero" transform="translate(97.500000, 97.000000) rotate(-3.000000) translate(-97.500000, -97.000000) "></path>
                </g>
            </g>
        </g>
    </g>
</svg>