<?xml version="1.0" encoding="UTF-8"?>
<svg width="16px" height="16px" viewBox="0 0 16 16" version="1.1" xmlns="http://www.w3.org/2000/svg" xmlns:xlink="http://www.w3.org/1999/xlink">
    <!-- Generator: Sketch 53 (72520) - https://sketchapp.com -->
    <title>icon/search</title>
    <desc>Created with Sketch.</desc>
    <g id="icon/search" stroke="none" stroke-width="1" fill="none" fill-rule="evenodd">
        <g id="search" fill="#8A94A6" fill-rule="nonzero">
            <path d="M11.8888889,6.83333333 C11.8888889,4.0412271 9.62543957,1.77777778 6.83333333,1.77777778 C4.0412271,1.77777778 1.77777778,4.0412271 1.77777778,6.83333333 C1.77777778,9.62543957 4.0412271,11.8888889 6.83333333,11.8888889 C8.1930949,11.8888889 9.46566461,11.3506373 10.4081509,10.4081509 C11.3506373,9.46566461 11.8888889,8.1930949 11.8888889,6.83333333 Z M15.5499719,14.4500281 C16.2832679,15.183324 15.183324,16.2832679 14.4500281,15.5499719 L10.9259332,12.025877 C9.77443681,12.9349904 8.34351171,13.4444444 6.83333333,13.4444444 C3.18211749,13.4444444 0.222222222,10.4845492 0.222222222,6.83333333 C0.222222222,3.18211749 3.18211749,0.222222222 6.83333333,0.222222222 C10.4845492,0.222222222 13.4444444,3.18211749 13.4444444,6.83333333 C13.4444444,8.34351171 12.9349904,9.77443681 12.025877,10.9259332 L15.5499719,14.4500281 Z" id="Path"></path>
        </g>
    </g>
</svg>