<?xml version="1.0" encoding="UTF-8"?>
<svg width="16px" height="16px" viewBox="0 0 16 16" version="1.1" xmlns="http://www.w3.org/2000/svg" xmlns:xlink="http://www.w3.org/1999/xlink">
    <!-- Generator: Sketch 53 (72520) - https://sketchapp.com -->
    <title>icon/up</title>
    <desc>Created with Sketch.</desc>
    <g id="icon/up" stroke="none" stroke-width="1" fill="none" fill-rule="evenodd">
        <rect id="Rectangle" fill="#74DDAD" fill-rule="nonzero" transform="translate(8.000000, 9.000000) scale(1, -1) rotate(-180.000000) translate(-8.000000, -9.000000) " x="7" y="5.00000005" width="2" height="8" rx="1"></rect>
        <path d="M10.2928932,3.29289323 C10.6834175,2.90236893 11.3165825,2.90236893 11.7071068,3.29289323 C12.0976311,3.68341752 12.0976311,4.31658253 11.7071068,4.70710683 L8.70710678,7.70710682 C8.31658249,8.09763113 7.68341751,8.09763113 7.29289322,7.70710682 L4.29289322,4.70710683 C3.90236893,4.31658253 3.90236893,3.68341752 4.29289322,3.29289323 C4.68341751,2.90236893 5.31658249,2.90236893 5.70710678,3.29289323 L8,5.58578643 L10.2928932,3.29289323 Z" id="Path-104" fill="#18C576" fill-rule="nonzero" transform="translate(8.000000, 5.500000) scale(1, -1) translate(-8.000000, -5.500000) "></path>
    </g>
</svg>